<svg xmlns="http://www.w3.org/2000/svg" width="189.8" height="219.2" viewBox="0 0 189.8 219.2"><path d="M94.9 0l94.9 54.8v109.6l-94.9 54.8L0 164.4V54.8zM43.6 154.6l8.7-4.5h85.1l8.6 4.5a1.9 1.9 0 0 0 2.4-.6l4.1-5.9a1.8 1.8 0 0 0 0-2.1l-14.8-17.7h9.2a1.7 1.7 0 0 0 1.8-1.8v-12.9a1.7 1.7 0 0 0-1.8-1.8h-10.4a45.9 45.9 0 0 0 2-13.7 42.6 42.6 0 0 0-85.2 0 53.4 53.4 0 0 0 2 13.7H44.9a1.7 1.7 0 0 0-1.8 1.8v12.9a1.7 1.7 0 0 0 1.8 1.8h7.4l-15 17.7a2 2 0 0 0-.2 2.1l4.2 5.9a1.8 1.8 0 0 0 2.3.6zm30.3-20l-30.5 16-2.5-3.6 15.9-18.7h11.8zm71.2-19.2v9.3H46.7v-9.3zM56.9 98.1a39 39 0 0 1 78 0 45.2 45.2 0 0 1-2.2 13.7H59.1c-1.8-4.2-2.2-9-2.2-13.7zm26.8 48.4H59.3l17.1-9zm32.8-18.2l-15.1 18.2h-13l-15.1-18.2zm14 18.2h-24.4l7.3-9zm18.4.7l-2.5 3.4-30.6-16 5.4-6.3h11.9z"/></svg>