<svg xmlns="http://www.w3.org/2000/svg" width="189.8" height="219.2" viewBox="0 0 189.8 219.2"><path d="M94.9 0l94.9 54.8v109.6l-94.9 54.8L0 164.4V54.8zm52 150.1a1.7 1.7 0 0 0 1.8-1.8v-21.8h23.8a1.8 1.8 0 1 0 0-3.6H159v-11.7a1.7 1.7 0 0 0-1.8-1.8h-7a57 57 0 0 0-54.8-43.7c-.3-.2-.5-.2-.7 0a57 57 0 0 0-55 43.7h-7.1a1.7 1.7 0 0 0-1.8 1.8v11.7H17.3a1.8 1.8 0 0 0 0 3.6h23.8v21.8a1.7 1.7 0 0 0 1.8 1.8zm8.5-37.1v9.9h-121V113zm-92.7-3.6H43.4C49 87.6 68.3 70.9 91.3 69.5zm30.4 17.1v20H44.7v-20zm0-17.1H67.2l25.9-36.3zm53.3 0H96.7V69.3a53.6 53.6 0 0 1 49.7 40.1zm-41.6 17.1v20h-8.1v-20zm40.3 0v20h-36.7v-20z"/></svg>