<svg xmlns="http://www.w3.org/2000/svg" width="189.8" height="219.2" viewBox="0 0 189.8 219.2"><path d="M94.9 0l94.9 54.8v109.6l-94.9 54.8L0 164.4V54.8zM150 150.1a1.8 1.8 0 0 0 0-3.6h-9v-11.3h9a1.7 1.7 0 0 0 1.8-1.8V97.9a1.7 1.7 0 0 0-1.8-1.8h-11.9c-.9-25.6-20-39.6-43.2-39.6s-42.3 14-43.2 39.6H39.8a1.7 1.7 0 0 0-1.8 1.8v35.5a1.8 1.8 0 0 0 1.8 1.8h9v11.3h-9a1.8 1.8 0 0 0 0 3.6zm-1.8-50.4v31.9H41.6V99.7zM64 135.2v11.3H52.4v-11.3zm30.9-75.1c21.1 0 38.7 12.8 39.6 36H55.3c.9-23.2 18.5-36 39.6-36zm-9.4 75.1v11.3H67.6v-11.3zm15.2 0v11.3H89.2v-11.3zm39-14.1a1.9 1.9 0 0 0-1.8-1.8H94a1.8 1.8 0 1 0 0 3.6h43.9a1.9 1.9 0 0 0 1.8-1.8zm-17.4 14.1v11.3h-18v-11.3zm15.1 0v11.3h-11.5v-11.3z"/></svg>