<svg xmlns="http://www.w3.org/2000/svg"><symbol id="bubbles" viewBox="0 0 189.8 219.2"><path d="M94.9 0l94.9 54.8v109.6l-94.9 54.8L0 164.4V54.8zM43.6 154.6l8.7-4.5h85.1l8.6 4.5a1.9 1.9 0 0 0 2.4-.6l4.1-5.9a1.8 1.8 0 0 0 0-2.1l-14.8-17.7h9.2a1.7 1.7 0 0 0 1.8-1.8v-12.9a1.7 1.7 0 0 0-1.8-1.8h-10.4a45.9 45.9 0 0 0 2-13.7 42.6 42.6 0 0 0-85.2 0 53.4 53.4 0 0 0 2 13.7H44.9a1.7 1.7 0 0 0-1.8 1.8v12.9a1.7 1.7 0 0 0 1.8 1.8h7.4l-15 17.7a2 2 0 0 0-.2 2.1l4.2 5.9a1.8 1.8 0 0 0 2.3.6zm30.3-20l-30.5 16-2.5-3.6 15.9-18.7h11.8zm71.2-19.2v9.3H46.7v-9.3zM56.9 98.1a39 39 0 0 1 78 0 45.2 45.2 0 0 1-2.2 13.7H59.1c-1.8-4.2-2.2-9-2.2-13.7zm26.8 48.4H59.3l17.1-9zm32.8-18.2l-15.1 18.2h-13l-15.1-18.2zm14 18.2h-24.4l7.3-9zm18.4.7l-2.5 3.4-30.6-16 5.4-6.3h11.9z"/></symbol><symbol id="domes" viewBox="0 0 189.8 219.2"><path d="M94.9 0l94.9 54.8v109.6l-94.9 54.8L0 164.4V54.8zm52 150.1a1.7 1.7 0 0 0 1.8-1.8v-21.8h23.8a1.8 1.8 0 1 0 0-3.6H159v-11.7a1.7 1.7 0 0 0-1.8-1.8h-7a57 57 0 0 0-54.8-43.7c-.3-.2-.5-.2-.7 0a57 57 0 0 0-55 43.7h-7.1a1.7 1.7 0 0 0-1.8 1.8v11.7H17.3a1.8 1.8 0 0 0 0 3.6h23.8v21.8a1.7 1.7 0 0 0 1.8 1.8zm8.5-37.1v9.9h-121V113zm-92.7-3.6H43.4C49 87.6 68.3 70.9 91.3 69.5zm30.4 17.1v20H44.7v-20zm0-17.1H67.2l25.9-36.3zm53.3 0H96.7V69.3a53.6 53.6 0 0 1 49.7 40.1zm-41.6 17.1v20h-8.1v-20zm40.3 0v20h-36.7v-20z"/></symbol><symbol id="stilts" viewBox="0 0 189.8 219.2"><path d="M94.9 0l94.9 54.8v109.6l-94.9 54.8L0 164.4V54.8zM150 150.1a1.8 1.8 0 0 0 0-3.6h-9v-11.3h9a1.7 1.7 0 0 0 1.8-1.8V97.9a1.7 1.7 0 0 0-1.8-1.8h-11.9c-.9-25.6-20-39.6-43.2-39.6s-42.3 14-43.2 39.6H39.8a1.7 1.7 0 0 0-1.8 1.8v35.5a1.8 1.8 0 0 0 1.8 1.8h9v11.3h-9a1.8 1.8 0 0 0 0 3.6zm-1.8-50.4v31.9H41.6V99.7zM64 135.2v11.3H52.4v-11.3zm30.9-75.1c21.1 0 38.7 12.8 39.6 36H55.3c.9-23.2 18.5-36 39.6-36zm-9.4 75.1v11.3H67.6v-11.3zm15.2 0v11.3H89.2v-11.3zm39-14.1a1.9 1.9 0 0 0-1.8-1.8H94a1.8 1.8 0 1 0 0 3.6h43.9a1.9 1.9 0 0 0 1.8-1.8zm-17.4 14.1v11.3h-18v-11.3zm15.1 0v11.3h-11.5v-11.3z"/></symbol></svg>